<svg xmlns="http://www.w3.org/2000/svg" width="36" height="36" viewBox="0 0 36 36" fill="none">
  <path d="M14.5807 19.7114C15.3149 20.6939 16.2516 21.5069 17.3273 22.0952C18.403 22.6835 19.5925 23.0333 20.8152 23.121C22.0378 23.2086 23.265 23.0321 24.4135 22.6032C25.5619 22.1744 26.6048 21.5033 27.4714 20.6355L32.6004 15.5014C34.1575 13.8876 35.0191 11.7261 34.9997 9.4825C34.9802 7.23892 34.0812 5.09275 32.4963 3.50624C30.9113 1.91973 28.7673 1.01982 26.526 1.00032C24.2847 0.980827 22.1254 1.84331 20.5132 3.40201L17.5726 6.32845" stroke="white" stroke-width="2" stroke-linecap="round" stroke-linejoin="round"/>
  <path d="M21.4193 16.2887C20.6851 15.3061 19.7484 14.4931 18.6727 13.9048C17.597 13.3165 16.4074 12.9667 15.1848 12.879C13.9622 12.7914 12.735 12.968 11.5865 13.3968C10.438 13.8257 9.39514 14.4967 8.52854 15.3645L3.39959 20.4986C1.84246 22.1125 0.980847 24.274 1.00032 26.5175C1.0198 28.7611 1.91881 30.9073 3.50372 32.4938C5.08864 34.0803 7.23264 34.9802 9.47397 34.9997C11.7153 35.0192 13.8746 34.1567 15.4868 32.598L18.4103 29.6716" stroke="white" stroke-width="2" stroke-linecap="round" stroke-linejoin="round"/>
</svg>